<?xml version="1.0" encoding="UTF-8" standalone="no"?>
<svg
   xmlns:dc="http://purl.org/dc/elements/1.1/"
   xmlns:cc="http://creativecommons.org/ns#"
   xmlns:rdf="http://www.w3.org/1999/02/22-rdf-syntax-ns#"
   xmlns:svg="http://www.w3.org/2000/svg"
   xmlns="http://www.w3.org/2000/svg"
   xmlns:sodipodi="http://sodipodi.sourceforge.net/DTD/sodipodi-0.dtd"
   xmlns:inkscape="http://www.inkscape.org/namespaces/inkscape"
   version="1.1"
   id="Capa_1"
   x="0px"
   y="0px"
   viewBox="0 0 32.000001 32.000001"
   xml:space="preserve"
   sodipodi:docname="logo.svg"
   width="32"
   height="32"
   inkscape:version="1.0.1 (3bc2e813f5, 2020-09-07)"><metadata
   id="metadata43"><rdf:RDF><cc:Work
       rdf:about=""><dc:format>image/svg+xml</dc:format><dc:type
         rdf:resource="http://purl.org/dc/dcmitype/StillImage" /><dc:title></dc:title></cc:Work></rdf:RDF></metadata><defs
   id="defs41" /><sodipodi:namedview
   pagecolor="#acacac"
   bordercolor="#666666"
   borderopacity="1"
   objecttolerance="10"
   gridtolerance="10"
   guidetolerance="10"
   inkscape:pageopacity="0"
   inkscape:pageshadow="2"
   inkscape:window-width="640"
   inkscape:window-height="480"
   id="namedview39"
   showgrid="false"
   inkscape:pagecheckerboard="true"
   inkscape:zoom="3.2442433"
   inkscape:cx="89.651736"
   inkscape:cy="57.485956"
   inkscape:current-layer="Capa_1" />
<g
   id="g6"
   style="fill:#ffffff"
   transform="matrix(0.05228755,0,0,0.05228755,0.17818256,-0.14848355)">
	<g
   id="g4"
   style="fill:#ffffff">
		<path
   d="M 604.294,244.001 531.917,194.464 V 67.698 c 0,-9.778 -7.928,-17.705 -17.705,-17.705 H 427.98 c -9.779,0 -17.705,7.928 -17.705,17.705 v 43.507 c 0,0 -92.934,-63.674 -94.151,-64.523 -5.863,-4.086 -13.877,-4.277 -20.122,0 L 7.707,244.001 c -8.069,5.523 -10.133,16.541 -4.611,24.61 3.43,5.012 8.98,7.708 14.628,7.708 3.445,0 6.927,-1.003 9.984,-3.097 L 80.085,237.373 V 550.75 c 0,9.778 7.928,17.705 17.705,17.705 h 416.42 c 9.778,0 17.705,-7.928 17.705,-17.705 V 237.372 l 52.377,35.849 c 3.059,2.094 6.539,3.097 9.984,3.097 5.647,0 11.197,-2.696 14.628,-7.708 5.524,-8.067 3.459,-19.086 -4.61,-24.609 z M 342.752,533.045 h -73.498 v -172.16 h 73.498 z m 153.755,0 H 378.162 V 343.179 c 0,-9.778 -7.928,-17.705 -17.705,-17.705 H 251.548 c -9.778,0 -17.705,7.928 -17.705,17.705 V 533.044 H 115.497 V 213.136 L 306.003,82.748 496.509,213.138 v 319.907 z m 0,-362.818 -50.822,-34.785 V 85.404 h 50.822 z"
   id="path2"
   style="fill:#ffffff" />
	</g>
</g>
<g
   id="g8"
   style="fill:#ffffff">
</g>
<g
   id="g10"
   style="fill:#ffffff">
</g>
<g
   id="g12"
   style="fill:#ffffff">
</g>
<g
   id="g14"
   style="fill:#ffffff">
</g>
<g
   id="g16"
   style="fill:#ffffff">
</g>
<g
   id="g18"
   style="fill:#ffffff">
</g>
<g
   id="g20"
   style="fill:#ffffff">
</g>
<g
   id="g22"
   style="fill:#ffffff">
</g>
<g
   id="g24"
   style="fill:#ffffff">
</g>
<g
   id="g26"
   style="fill:#ffffff">
</g>
<g
   id="g28"
   style="fill:#ffffff">
</g>
<g
   id="g30"
   style="fill:#ffffff">
</g>
<g
   id="g32"
   style="fill:#ffffff">
</g>
<g
   id="g34"
   style="fill:#ffffff">
</g>
<g
   id="g36"
   style="fill:#ffffff">
</g>
</svg>
